<svg width="33" height="32" viewBox="0 0 33 32" fill="none" xmlns="http://www.w3.org/2000/svg">
<path d="M27.4981 16.2701C27.5031 16.0901 27.5031 15.9101 27.4981 15.7301L29.3631 13.4001C29.4609 13.2777 29.5286 13.1341 29.5607 12.9808C29.5928 12.8276 29.5885 12.6689 29.5481 12.5176C29.2418 11.3685 28.7845 10.2651 28.1881 9.23631C28.1099 9.1017 28.0014 8.9872 27.8712 8.90192C27.741 8.81664 27.5927 8.76292 27.4381 8.74506L24.4731 8.41506C24.3498 8.28506 24.2248 8.16006 24.0981 8.04006L23.7481 5.06756C23.7301 4.91282 23.6762 4.76443 23.5907 4.63422C23.5052 4.50401 23.3904 4.39557 23.2556 4.31756C22.2269 3.72162 21.1234 3.26512 19.9744 2.96006C19.823 2.91963 19.6644 2.91531 19.5111 2.94745C19.3578 2.97958 19.2142 3.04727 19.0919 3.14506L16.7681 5.00006C16.5881 5.00006 16.4081 5.00006 16.2281 5.00006L13.8981 3.13881C13.7758 3.04102 13.6322 2.97333 13.4789 2.9412C13.3256 2.90906 13.1669 2.91338 13.0156 2.95381C11.8665 3.26009 10.7632 3.71741 9.73435 4.31381C9.59975 4.39196 9.48525 4.50046 9.39997 4.63067C9.31468 4.76087 9.26097 4.90919 9.2431 5.06381L8.9131 8.03381C8.7831 8.15797 8.6581 8.28297 8.5381 8.40881L5.5656 8.75006C5.41087 8.76806 5.26248 8.82196 5.13227 8.90747C5.00205 8.99298 4.89362 9.10772 4.8156 9.24256C4.21979 10.2715 3.7629 11.3749 3.45685 12.5238C3.4166 12.6752 3.41248 12.834 3.44483 12.9872C3.47719 13.1405 3.5451 13.2841 3.6431 13.4063L5.4981 15.7301C5.4981 15.9101 5.4981 16.0901 5.4981 16.2701L3.63685 18.6001C3.53906 18.7224 3.47138 18.866 3.43924 19.0193C3.40711 19.1726 3.41143 19.3312 3.45185 19.4826C3.75814 20.6316 4.21546 21.735 4.81185 22.7638C4.89001 22.8984 4.99851 23.0129 5.12871 23.0982C5.25892 23.1835 5.40723 23.2372 5.56185 23.2551L8.52685 23.5851C8.65102 23.7151 8.77602 23.8401 8.90185 23.9601L9.2481 26.9326C9.26611 27.0873 9.32001 27.2357 9.40552 27.3659C9.49102 27.4961 9.60577 27.6045 9.7406 27.6826C10.7696 28.2784 11.8729 28.7353 13.0219 29.0413C13.1733 29.0816 13.332 29.0857 13.4853 29.0533C13.6386 29.021 13.7821 28.9531 13.9044 28.8551L16.2281 27.0001C16.4081 27.0051 16.5881 27.0051 16.7681 27.0001L19.0981 28.8651C19.2204 28.9628 19.364 29.0305 19.5173 29.0627C19.6706 29.0948 19.8293 29.0905 19.9806 29.0501C21.1299 28.7443 22.2333 28.287 23.2619 27.6901C23.3965 27.6119 23.511 27.5034 23.5962 27.3732C23.6815 27.243 23.7352 27.0947 23.7531 26.9401L24.0831 23.9751C24.2131 23.8517 24.3381 23.7267 24.4581 23.6001L27.4306 23.2501C27.5853 23.2321 27.7337 23.1782 27.8639 23.0926C27.9942 23.0071 28.1026 22.8924 28.1806 22.7576C28.7764 21.7286 29.2333 20.6253 29.5394 19.4763C29.5796 19.3249 29.5837 19.1662 29.5514 19.0129C29.519 18.8596 29.4511 18.716 29.3531 18.5938L27.4981 16.2701ZM16.4981 21.0001C15.5092 21.0001 14.5425 20.7068 13.7203 20.1574C12.898 19.608 12.2571 18.8271 11.8787 17.9135C11.5003 16.9998 11.4013 15.9945 11.5942 15.0246C11.7871 14.0547 12.2633 13.1638 12.9626 12.4645C13.6618 11.7653 14.5527 11.2891 15.5227 11.0961C16.4926 10.9032 17.4979 11.0022 18.4115 11.3807C19.3252 11.7591 20.106 12.4 20.6555 13.2222C21.2049 14.0445 21.4981 15.0112 21.4981 16.0001C21.4981 17.3261 20.9713 18.5979 20.0336 19.5356C19.096 20.4733 17.8242 21.0001 16.4981 21.0001Z" fill="#333333"/>
</svg>
