<svg width="33" height="32" viewBox="0 0 33 32" fill="none" xmlns="http://www.w3.org/2000/svg">
<path d="M18.5338 5.74149C18.5677 5.61458 18.6263 5.4956 18.7063 5.39135C18.7862 5.2871 18.8859 5.19963 18.9997 5.13392C19.1134 5.06822 19.239 5.02558 19.3693 5.00843C19.4995 4.99128 19.6319 4.99997 19.7588 5.03399C21.6126 5.51767 23.304 6.48679 24.6587 7.84153C26.0135 9.19627 26.9826 10.8877 27.4663 12.7415C27.5003 12.8684 27.509 13.0007 27.4918 13.131C27.4747 13.2612 27.432 13.3868 27.3663 13.5006C27.3006 13.6143 27.2131 13.714 27.1089 13.794C27.0047 13.8739 26.8857 13.9325 26.7588 13.9665C26.6743 13.9887 26.5873 14 26.5 14.0002C26.2798 14.0003 26.0657 13.9277 25.891 13.7937C25.7163 13.6596 25.5907 13.4717 25.5338 13.259C25.1395 11.7454 24.3486 10.3644 23.2428 9.25829C22.1369 8.1522 20.756 7.36108 19.2425 6.96649C19.1155 6.93267 18.9964 6.87415 18.892 6.79427C18.7876 6.71438 18.7 6.6147 18.6342 6.50093C18.5683 6.38715 18.5256 6.26151 18.5084 6.1312C18.4911 6.00089 18.4998 5.86846 18.5338 5.74149ZM18.2425 10.9665C19.9663 11.4265 21.0738 12.5352 21.5338 14.259C21.5907 14.4717 21.7163 14.6596 21.891 14.7937C22.0657 14.9277 22.2798 15.0003 22.5 15.0002C22.5873 15 22.6743 14.9887 22.7588 14.9665C22.8857 14.9325 23.0047 14.8739 23.1089 14.794C23.2131 14.714 23.3006 14.6143 23.3663 14.5006C23.432 14.3868 23.4747 14.2612 23.4918 14.131C23.509 14.0007 23.5003 13.8684 23.4663 13.7415C22.8263 11.3465 21.1538 9.67399 18.7588 9.03399C18.5025 8.96553 18.2295 9.00167 17.9999 9.13447C17.7703 9.26727 17.6028 9.48584 17.5344 9.74211C17.4659 9.99838 17.5021 10.2713 17.6349 10.501C17.7677 10.7306 17.9862 10.898 18.2425 10.9665ZM27.2963 20.8077L21.4075 18.169L21.3913 18.1615C21.0856 18.0307 20.7521 17.9783 20.421 18.0088C20.0899 18.0394 19.7716 18.152 19.495 18.3365C19.4624 18.358 19.4311 18.3814 19.4013 18.4065L16.3588 21.0002C14.4313 20.064 12.4413 18.089 11.505 16.1865L14.1025 13.0977C14.1275 13.0665 14.1513 13.0352 14.1738 13.0015C14.3543 12.7256 14.4638 12.4094 14.4926 12.081C14.5214 11.7525 14.4686 11.4221 14.3388 11.119V11.104L11.6925 5.20524C11.5209 4.80932 11.2259 4.4795 10.8515 4.26503C10.4771 4.05056 10.0433 3.96294 9.61501 4.01524C7.92122 4.23812 6.36649 5.06995 5.24118 6.35535C4.11587 7.64076 3.49695 9.29185 3.50001 11.0002C3.50001 20.9252 11.575 29.0002 21.5 29.0002C23.2084 29.0033 24.8595 28.3844 26.1449 27.2591C27.4303 26.1338 28.2621 24.579 28.485 22.8852C28.5374 22.4571 28.45 22.0234 28.2357 21.649C28.0215 21.2746 27.6919 20.9795 27.2963 20.8077Z" fill="#333333"/>
</svg>
