<svg width="26" height="26" viewBox="0 0 26 26" fill="none" xmlns="http://www.w3.org/2000/svg">
<path fill-rule="evenodd" clip-rule="evenodd" d="M13 0.5C14.6415 0.499992 16.267 0.823308 17.7835 1.45149C19.3001 2.07967 20.6781 3.00041 21.8388 4.16114C22.9996 5.32187 23.9203 6.69986 24.5485 8.21643C25.1767 9.733 25.5 11.3585 25.5 13C25.5 19.9036 19.9036 25.5 13 25.5C6.09647 25.5 0.5 19.9036 0.5 13C0.5 6.09647 6.09647 0.5 13 0.5ZM14.25 14.25H11.75C8.65537 14.25 5.99855 16.1243 4.85264 18.7997C6.66576 21.3421 9.63928 23 13 23C16.3607 23 19.3342 21.3421 21.1474 18.7995C20.0015 16.1243 17.3447 14.25 14.25 14.25ZM13 4.25C10.9289 4.25 9.24998 5.92895 9.24998 8C9.24998 10.0711 10.9289 11.75 13 11.75C15.071 11.75 16.75 10.0711 16.75 8C16.75 5.92895 15.0711 4.25 13 4.25Z" fill="#000101"/>
</svg>
