<svg width="23" height="22" viewBox="0 0 23 22" fill="none" xmlns="http://www.w3.org/2000/svg">
<path d="M19.3472 0.203125H4.12079C2.36998 0.203125 0.9375 1.6356 0.9375 3.38641V18.6145C0.9375 20.3653 2.36998 21.7978 4.12079 21.7978H19.3488C21.0996 21.7978 22.5321 20.3653 22.5321 18.6145V3.38641C22.5305 1.6356 21.0996 0.203125 19.3472 0.203125ZM19.1427 11.729H16.5802V21.0003H12.7459V11.729H10.828V8.53299H12.7459V6.61506C12.7459 4.00795 13.8282 2.45689 16.9081 2.45689H19.4682V5.65212H17.867C16.6701 5.65212 16.5905 6.10017 16.5905 6.93339L16.5802 8.53299H19.4809L19.1427 11.729Z" fill="#000101"/>
</svg>
