<svg width="23" height="23" viewBox="0 0 23 23" fill="none" xmlns="http://www.w3.org/2000/svg">
<path fill-rule="evenodd" clip-rule="evenodd" d="M5.54923 0.699219C4.29329 0.699219 3.08876 1.19802 2.2005 2.08593C1.31224 2.97385 0.812982 4.17819 0.8125 5.43413V18.0654C0.8125 19.3217 1.31155 20.5265 2.19986 21.4148C3.08817 22.3031 4.29297 22.8022 5.54923 22.8022H18.1805C19.4365 22.8017 20.6408 22.3024 21.5287 21.4142C22.4166 20.5259 22.9154 19.3214 22.9154 18.0654V5.43413C22.9149 4.1785 22.4159 2.97444 21.5281 2.08658C20.6402 1.19871 19.4361 0.699701 18.1805 0.699219H5.54923ZM19.543 5.44141C19.543 5.80323 19.3992 6.15024 19.1434 6.40609C18.8875 6.66194 18.5405 6.80567 18.1787 6.80567C17.8169 6.80567 17.4699 6.66194 17.214 6.40609C16.9582 6.15024 16.8144 5.80323 16.8144 5.44141C16.8144 5.07958 16.9582 4.73258 17.214 4.47673C17.4699 4.22088 17.8169 4.07714 18.1787 4.07714C18.5405 4.07714 18.8875 4.22088 19.1434 4.47673C19.3992 4.73258 19.543 5.07958 19.543 5.44141ZM11.8667 7.96621C10.8632 7.96621 9.90087 8.36483 9.19131 9.07439C8.48175 9.78395 8.08313 10.7463 8.08313 11.7498C8.08313 12.7532 8.48175 13.7156 9.19131 14.4252C9.90087 15.1347 10.8632 15.5333 11.8667 15.5333C12.8702 15.5333 13.8325 15.1347 14.5421 14.4252C15.2516 13.7156 15.6503 12.7532 15.6503 11.7498C15.6503 10.7463 15.2516 9.78395 14.5421 9.07439C13.8325 8.36483 12.8702 7.96621 11.8667 7.96621ZM6.26229 11.7498C6.26229 10.2639 6.85256 8.83884 7.90325 7.78815C8.95394 6.73746 10.379 6.14719 11.8649 6.14719C13.3508 6.14719 14.7758 6.73746 15.8265 7.78815C16.8772 8.83884 17.4675 10.2639 17.4675 11.7498C17.4675 13.2357 16.8772 14.6607 15.8265 15.7114C14.7758 16.7621 13.3508 17.3524 11.8649 17.3524C10.379 17.3524 8.95394 16.7621 7.90325 15.7114C6.85256 14.6607 6.26229 13.2357 6.26229 11.7498Z" fill="#000101"/>
</svg>
