<svg width="38" height="38" viewBox="0 0 38 38" fill="none" xmlns="http://www.w3.org/2000/svg">
<path d="M19 2.375C15.5369 2.37909 12.2167 3.75662 9.76794 6.20543C7.31913 8.65424 5.94159 11.9744 5.93751 15.4375C5.93432 18.2674 6.85866 21.0204 8.56901 23.275C8.56901 23.275 8.92526 23.7441 8.98345 23.8118L19 35.625L29.0213 23.8058C29.0736 23.7429 29.431 23.275 29.431 23.275L29.4322 23.2714C31.1414 21.0177 32.0653 18.2661 32.0625 15.4375C32.0584 11.9744 30.6809 8.65424 28.2321 6.20543C25.7833 3.75662 22.4631 2.37909 19 2.375ZM19 20.1875C18.0605 20.1875 17.1422 19.9089 16.361 19.387C15.5799 18.865 14.9711 18.1232 14.6116 17.2552C14.2521 16.3873 14.158 15.4322 14.3413 14.5108C14.5246 13.5894 14.9769 12.743 15.6412 12.0787C16.3055 11.4144 17.1519 10.962 18.0733 10.7788C18.9947 10.5955 19.9498 10.6896 20.8178 11.0491C21.6857 11.4086 22.4275 12.0174 22.9495 12.7985C23.4714 13.5797 23.75 14.498 23.75 15.4375C23.7484 16.6968 23.2475 17.9041 22.357 18.7945C21.4666 19.685 20.2593 20.1859 19 20.1875Z" fill="white"/>
</svg>
