<svg width="38" height="38" viewBox="0 0 38 38" fill="none" xmlns="http://www.w3.org/2000/svg">
<path d="M31.668 12.6654L19.0013 20.582L6.33464 12.6654V9.4987L19.0013 17.4154L31.668 9.4987M31.668 6.33203H6.33464C4.57714 6.33203 3.16797 7.7412 3.16797 9.4987V28.4987C3.16797 29.3386 3.5016 30.144 4.09546 30.7379C4.68933 31.3317 5.49478 31.6654 6.33464 31.6654H31.668C32.5078 31.6654 33.3133 31.3317 33.9071 30.7379C34.501 30.144 34.8346 29.3386 34.8346 28.4987V9.4987C34.8346 8.65885 34.501 7.85339 33.9071 7.25953C33.3133 6.66566 32.5078 6.33203 31.668 6.33203Z" fill="white"/>
</svg>
