<svg width="33" height="32" viewBox="0 0 33 32" fill="none" xmlns="http://www.w3.org/2000/svg">
<path d="M29.4991 12.0002C29.5006 13.497 29.1287 14.9705 28.4172 16.2874C27.7058 17.6042 26.6771 18.7229 25.4243 19.542C24.1716 20.3611 22.7343 20.8548 21.2427 20.9785C19.751 21.1022 18.2521 20.8519 16.8815 20.2502L10.3741 27.7777C10.3591 27.7952 10.3416 27.814 10.3253 27.8302C9.57507 28.5805 8.55754 29.0019 7.49655 29.0019C6.43556 29.0019 5.41803 28.5805 4.6678 27.8302C3.91757 27.08 3.49609 26.0625 3.49609 25.0015C3.49609 23.9405 3.91757 22.923 4.6678 22.1727C4.6853 22.1565 4.7028 22.139 4.72155 22.124L12.2491 15.6177C11.5746 14.075 11.346 12.3741 11.5892 10.7081C11.8324 9.04202 12.5376 7.47745 13.6249 6.19186C14.7121 4.90626 16.1379 3.95108 17.7405 3.43467C19.343 2.91827 21.0583 2.8613 22.6915 3.27024C22.8599 3.31244 23.0144 3.39774 23.1398 3.51775C23.2652 3.63775 23.3572 3.78834 23.4068 3.95469C23.4564 4.12104 23.4618 4.29743 23.4225 4.4665C23.3832 4.63558 23.3006 4.79152 23.1828 4.91899L18.4991 10.0002L19.2066 13.294L22.4991 14.0002L27.5803 9.31024C27.7078 9.19242 27.8637 9.10982 28.0328 9.07054C28.2019 9.03127 28.3783 9.03668 28.5446 9.08624C28.711 9.13581 28.8615 9.22782 28.9815 9.35323C29.1016 9.47863 29.1868 9.63312 29.229 9.80149C29.4085 10.5206 29.4992 11.259 29.4991 12.0002Z" fill="#333333"/>
</svg>
