<svg width="25" height="24" viewBox="0 0 25 24" fill="none" xmlns="http://www.w3.org/2000/svg">
<path d="M12.5 9.75C11.2574 9.75 10.25 10.7574 10.25 12C10.25 13.2426 11.2574 14.25 12.5 14.25C13.7426 14.25 14.75 13.2426 14.75 12C14.75 10.7574 13.7426 9.75 12.5 9.75Z" fill="#F6C200"/>
<path fill-rule="evenodd" clip-rule="evenodd" d="M12.5 5.5C9.88223 5.5 7.52801 6.55139 5.83162 7.85335C4.98232 8.50519 4.28544 9.22913 3.79649 9.93368C3.31686 10.6248 3 11.3515 3 12C3 12.6485 3.31686 13.3752 3.79649 14.0663C4.28544 14.7709 4.98232 15.4948 5.83162 16.1466C7.52801 17.4486 9.88223 18.5 12.5 18.5C15.1178 18.5 17.472 17.4486 19.1684 16.1466C20.0177 15.4948 20.7146 14.7709 21.2035 14.0663C21.6831 13.3752 22 12.6485 22 12C22 11.3515 21.6831 10.6248 21.2035 9.93368C20.7146 9.22913 20.0177 8.50519 19.1684 7.85335C17.472 6.55139 15.1178 5.5 12.5 5.5ZM8.75 12C8.75 9.92893 10.4289 8.25 12.5 8.25C14.5711 8.25 16.25 9.92893 16.25 12C16.25 14.0711 14.5711 15.75 12.5 15.75C10.4289 15.75 8.75 14.0711 8.75 12Z" fill="#F6C200"/>
</svg>
