<svg width="38" height="38" viewBox="0 0 38 38" fill="none" xmlns="http://www.w3.org/2000/svg">
<g clip-path="url(#clip0_2404_2202)">
<path d="M13.2768 3.92544C14.1083 3.67477 15.0004 3.71642 15.8049 4.04345C16.6093 4.37048 17.2775 4.96316 17.6981 5.72284L17.8387 6.00594L19.0965 8.80084C19.4775 9.64931 19.601 10.591 19.4518 11.509C19.3025 12.427 18.8869 13.281 18.2567 13.965L18.004 14.2158L16.0223 16.0645C15.6651 16.4027 15.933 17.7118 17.225 19.95C18.3878 21.964 19.334 22.9045 19.7995 22.9558H19.8812L19.9819 22.9368L23.8769 21.7455C24.4004 21.585 24.9591 21.5786 25.486 21.7272C26.013 21.8758 26.4861 22.1731 26.8485 22.5834L27.0214 22.8019L29.5997 26.3739C30.105 27.0741 30.3568 27.9254 30.3137 28.7878C30.2705 29.6501 29.9349 30.4721 29.3622 31.1182L29.1304 31.3576L28.1006 32.3342C27.1759 33.21 26.0191 33.8018 24.7679 34.0392C23.5166 34.2767 22.2234 34.1498 21.0421 33.6737C17.3656 32.1917 14.0254 28.8059 10.9911 23.5505C7.95115 18.2818 6.68765 13.6895 7.25195 9.75654C7.42271 8.56765 7.91227 7.4472 8.66865 6.51419C9.42503 5.58117 10.42 4.87043 11.5478 4.45744L11.9145 4.33584L13.2768 3.92544Z" fill="white"/>
</g>
<defs>
<clipPath id="clip0_2404_2202">
<rect width="38" height="38" fill="white"/>
</clipPath>
</defs>
</svg>
