<svg width="25" height="24" viewBox="0 0 25 24" fill="none" xmlns="http://www.w3.org/2000/svg">
<path fill-rule="evenodd" clip-rule="evenodd" d="M5.07251 0.330078C3.94683 0.330078 2.86725 0.777253 2.07128 1.57323C1.2753 2.36921 0.828125 3.44878 0.828125 4.57446V19.4298C0.828125 20.5555 1.2753 21.6351 2.07128 22.431C2.86725 23.227 3.94683 23.6742 5.07251 23.6742H19.9279C21.0535 23.6742 22.1331 23.227 22.9291 22.431C23.7251 21.6351 24.1722 20.5555 24.1722 19.4298V4.57446C24.1722 3.44878 23.7251 2.36921 22.9291 1.57323C22.1331 0.777253 21.0535 0.330078 19.9279 0.330078H5.07251ZM4.7181 4.04391C4.60195 4.08708 4.49747 4.15678 4.41301 4.24745C4.32855 4.33813 4.26643 4.44727 4.23159 4.56619C4.19676 4.68512 4.19018 4.81053 4.21238 4.93244C4.23458 5.05436 4.28494 5.1694 4.35945 5.26842L10.3164 13.1736L4.04006 19.9062L3.99337 19.9604H6.16544L11.2905 14.4649L15.2293 19.694C15.3207 19.8151 15.4448 19.9075 15.5869 19.9604H20.2791C20.3951 19.917 20.4993 19.8471 20.5835 19.7563C20.6678 19.6655 20.7297 19.5564 20.7643 19.4375C20.7989 19.3186 20.8053 19.1932 20.783 19.0714C20.7606 18.9496 20.7102 18.8347 20.6356 18.7358L14.6786 10.8307L21.007 4.04391H18.8317L13.7066 9.54039L9.76574 4.31131C9.6745 4.18988 9.55042 4.0971 9.40815 4.04391H4.7181ZM16.2628 18.4196L6.59094 5.58463H8.73329L18.4041 18.4186L16.2628 18.4196Z" fill="#000101"/>
</svg>
